<svg xmlns="http://www.w3.org/2000/svg" width="323" height="60" viewBox="0 0 323 60"><defs><clipPath id="9fg0a"><path d="M-.002 59.423V0h322.815v59.422z"/></clipPath></defs><g><g><g><g><path fill="#fff" d="M16.254 15.523l3.573-4.026.657-.048 4.718-.323-.017-.015.017-.001-9.528-8.094.001.01-.013-.01z"/></g><g><path fill="#fff" d="M32.282 17.507l-6.23-5.29-5.796.4-3.88 4.227 1.278 24.706 4.374-4.93 1.074-.073.452 9.573 3.223-3.632 4.84-.33-4.726-4.019 2.049-2.309 6.134-.447.236-.016-2.331-1.98 2.035-2.293h2.872v5.574l.267-.265.012.265 2.124-2.393 2.394-2.385 6.05-.415-11.267-9.578v.006l-5.184-4.409z"/></g><g><path fill="#fff" d="M38.544 42.815l.28 5.91-5.693-4.91.368 10.05 2.922-3.13 2.487-.236.003.07.069-.077 1.703-.163-.883-.762 1.327-1.496 3.331-.227z"/></g><g><path fill="#fff" d="M42.849 59.423l2.319-2.466 3.059.037-5.746-5.154z"/></g><g><g><g/><g clip-path="url(#9fg0a)"><path fill="#fff" d="M20.198 2.788L19.74 1.36a28.09 28.09 0 0 0-2.877 1.102l.612 1.37a26.764 26.764 0 0 1 2.724-1.044"/></g><g clip-path="url(#9fg0a)"><path fill="#fff" d="M36.445 1.135a28.38 28.38 0 0 0-6.25-1.084l-.09 1.497a26.91 26.91 0 0 1 5.92 1.027z"/></g><g clip-path="url(#9fg0a)"><path fill="#fff" d="M54.758 17.56a28.534 28.534 0 0 0-3.071-5.55l-1.224.867a26.933 26.933 0 0 1 2.91 5.257z"/></g><g clip-path="url(#9fg0a)"><path fill="#fff" d="M44.111 4.686a28.387 28.387 0 0 0-5.655-2.88l-.527 1.403a26.964 26.964 0 0 1 5.356 2.73z"/></g><g clip-path="url(#9fg0a)"><path fill="#fff" d="M49.241 11.283l1.156-.956a28.66 28.66 0 0 0-4.56-4.41l-.918 1.188a27.119 27.119 0 0 1 4.322 4.178"/></g><g clip-path="url(#9fg0a)"><path fill="#fff" d="M55.3 25.895l1.492-.142a28.457 28.457 0 0 0-1.298-6.21l-1.424.47c.626 1.9 1.04 3.88 1.23 5.882"/></g><g clip-path="url(#9fg0a)"><path fill="#fff" d="M47.272 47.773l1.047 1.074a28.66 28.66 0 0 0 4.026-4.905l-1.258-.817a27.133 27.133 0 0 1-3.815 4.648"/></g><g clip-path="url(#9fg0a)"><path fill="#fff" d="M52.118 41.401l1.315.721a28.356 28.356 0 0 0 2.409-5.873l-1.444-.41a26.745 26.745 0 0 1-2.28 5.562"/></g><g clip-path="url(#9fg0a)"><path fill="#fff" d="M55.414 27.9a27.131 27.131 0 0 1-.541 5.989l1.47.3a28.652 28.652 0 0 0 .571-6.32z"/></g><g clip-path="url(#9fg0a)"><path fill="#fff" d="M28.097 1.501l-.02-1.5a28.553 28.553 0 0 0-6.297.786l.351 1.458a27.075 27.075 0 0 1 5.966-.744"/></g><g clip-path="url(#9fg0a)"><path fill="#fff" d="M44.239 52.15c.85-.567 1.68-1.188 2.466-1.846l-.962-1.15a26.966 26.966 0 0 1-2.337 1.748z"/></g><g clip-path="url(#9fg0a)"><path fill="#fff" d="M28.46 55.421c-14.867 0-26.962-12.095-26.962-26.96 0-9.463 4.824-18.065 12.904-23.012L13.62 4.17C5.09 9.391 0 18.472 0 28.46c0 15.693 12.767 28.461 28.46 28.461 4.406 0 8.63-.98 12.556-2.913l-.662-1.345a26.705 26.705 0 0 1-11.894 2.758"/></g><g clip-path="url(#9fg0a)"><path fill="#fff" d="M90.584 26.644V4.09h1.488v22.553z"/></g><g clip-path="url(#9fg0a)"><path fill="#fff" d="M83.385 24.125c-.987.832-2.44 1.248-4.363 1.248H73.52v-9.238h5.518c.92 0 1.742.103 2.465.31.723.207 1.333.504 1.83.891a3.9 3.9 0 0 1 1.138 1.411c.264.552.395 1.175.395 1.867zM73.52 5.967h4.712c1.953 0 3.397.38 4.333 1.14.935.76 1.402 1.877 1.402 3.355 0 .568-.108 1.121-.325 1.66a3.986 3.986 0 0 1-1.015 1.44c-.46.424-1.05.765-1.767 1.023-.719.258-1.584.387-2.597.387H73.52zm7.549 9.44a6.716 6.716 0 0 0 1.9-.768 5.548 5.548 0 0 0 1.394-1.185c.377-.455.666-.95.868-1.489a4.736 4.736 0 0 0 .302-1.673c0-.879-.145-1.664-.434-2.356a4.41 4.41 0 0 0-1.333-1.76c-.6-.48-1.359-.844-2.279-1.093-.919-.248-2.004-.372-3.255-.372h-6.308v21.933h7.114c1.168 0 2.211-.137 3.131-.41.92-.275 1.695-.67 2.325-1.187a5.084 5.084 0 0 0 1.442-1.89c.33-.744.496-1.582.496-2.51 0-1.459-.463-2.634-1.387-3.528-.926-.893-2.251-1.465-3.976-1.713z"/></g><g clip-path="url(#9fg0a)"><path fill="#fff" d="M123.615 15.933c0 .58-.093 1.105-.279 1.581a3.411 3.411 0 0 1-.806 1.224 3.66 3.66 0 0 1-1.302.8c-.517.19-1.106.285-1.767.285-.651 0-1.232-.095-1.743-.286a3.764 3.764 0 0 1-1.303-.799 3.376 3.376 0 0 1-.813-1.224 4.306 4.306 0 0 1-.279-1.58c0-.58.093-1.109.279-1.59.186-.48.457-.89.813-1.232a3.675 3.675 0 0 1 1.303-.79c.511-.187 1.092-.28 1.743-.28s1.233.093 1.744.28c.512.185.946.45 1.302.79.357.341.63.752.821 1.232.192.481.287 1.01.287 1.59zm-6.525 9.114zm1.72.186l1.822.093c.604.031 1.183.08 1.735.147a6.045 6.045 0 0 1 1.465.35c.424.164.762.394 1.015.69.253.293.38.683.38 1.17 0 .526-.142 1.011-.426 1.456a3.803 3.803 0 0 1-1.178 1.147 6.135 6.135 0 0 1-1.767.744 8.741 8.741 0 0 1-2.193.263c-.848 0-1.597-.083-2.248-.248-.65-.165-1.2-.39-1.65-.674-.45-.284-.79-.62-1.024-1.007a2.418 2.418 0 0 1-.348-1.264c0-.35.067-.679.201-.984.134-.305.32-.586.558-.845a3.95 3.95 0 0 1 .853-.69c.33-.2.692-.379 1.085-.534.537.093 1.11.155 1.72.186zm2.534-14.028a6.787 6.787 0 0 0-1.883-.248c-.826 0-1.578.12-2.255.357a5.143 5.143 0 0 0-1.744 1.007 4.43 4.43 0 0 0-1.123 1.558c-.264.604-.396 1.28-.396 2.023 0 .94.204 1.761.612 2.464a4.601 4.601 0 0 0 1.713 1.69 4.637 4.637 0 0 0-.806.558 3.773 3.773 0 0 0-.604.658c-.166.233-.29.468-.372.706a2.068 2.068 0 0 0-.124.682c0 .58.157 1.036.472 1.372.316.336.731.591 1.248.767-.93.331-1.664.788-2.2 1.371-.538.584-.807 1.284-.807 2.101 0 .558.14 1.085.42 1.581.278.496.694.932 1.246 1.31.553.376 1.238.676 2.054.898.817.223 1.767.334 2.852.334 1.064 0 2.026-.137 2.883-.41.858-.275 1.59-.639 2.193-1.094.605-.455 1.067-.976 1.388-1.565.32-.589.48-1.204.48-1.845 0-.692-.158-1.248-.473-1.666a3.152 3.152 0 0 0-1.239-.977 6.376 6.376 0 0 0-1.752-.487 22.546 22.546 0 0 0-2.007-.194c-.682-.036-1.352-.07-2.007-.1a11.05 11.05 0 0 1-1.752-.21c-.512-.109-.925-.282-1.24-.52-.316-.237-.473-.579-.473-1.023 0-.33.127-.663.38-.999a3.34 3.34 0 0 1 1.031-.876c.723.27 1.524.403 2.402.403.817 0 1.563-.119 2.24-.356a5.143 5.143 0 0 0 1.736-1c.48-.429.852-.946 1.116-1.55.264-.605.395-1.279.395-2.023 0-.569-.077-1.095-.232-1.58a4.507 4.507 0 0 0-.667-1.319l2.356-.17c.29-.052.434-.192.434-.419v-.51h-3.953a5.595 5.595 0 0 0-1.542-.699z"/></g><g clip-path="url(#9fg0a)"><path fill="#fff" d="M108.58 21.722c-.228.832-.57 1.542-1.03 2.131a4.562 4.562 0 0 1-1.721 1.356c-.687.316-1.49.473-2.41.473-.921 0-1.724-.157-2.411-.473a4.554 4.554 0 0 1-1.72-1.356c-.46-.589-.806-1.299-1.039-2.13-.232-.833-.349-1.765-.349-2.799 0-1.023.117-1.953.349-2.79.233-.837.58-1.552 1.04-2.146a4.585 4.585 0 0 1 1.719-1.372c.687-.32 1.49-.48 2.41-.48.92 0 1.724.16 2.411.48.687.32 1.26.777 1.72 1.372.46.594.803 1.31 1.031 2.146.227.837.341 1.767.341 2.79zm.016-8.579a6.073 6.073 0 0 0-2.209-1.605c-.873-.377-1.863-.566-2.969-.566-1.106 0-2.095.19-2.968.566a6.132 6.132 0 0 0-2.216 1.605c-.605.692-1.065 1.526-1.38 2.503-.315.976-.473 2.07-.473 3.278 0 1.21.158 2.3.473 3.271.315.971.775 1.803 1.38 2.495a6.032 6.032 0 0 0 2.216 1.597c.873.372 1.862.558 2.968.558 1.106 0 2.096-.186 2.97-.558a5.974 5.974 0 0 0 2.208-1.597c.6-.692 1.056-1.524 1.371-2.495.315-.972.473-2.062.473-3.27 0-1.21-.158-2.303-.473-3.279z"/></g><g clip-path="url(#9fg0a)"><path fill="#fff" d="M146.958 19.777c-.424 1.2-1.023 2.211-1.798 3.038a7.678 7.678 0 0 1-2.79 1.891c-1.085.434-2.284.651-3.596.651h-6.417V5.998h6.417c1.312 0 2.511.216 3.596.651a7.678 7.678 0 0 1 2.79 1.891c.775.826 1.374 1.84 1.798 3.037.423 1.2.635 2.563.635 4.093zm-.62-12.12a9.268 9.268 0 0 0-3.309-2.187c-1.287-.506-2.705-.759-4.255-.759h-8.014v21.933h8.014c1.55 0 2.968-.254 4.255-.76a9.242 9.242 0 0 0 3.309-2.186c.92-.95 1.633-2.102 2.14-3.456.505-1.354.758-2.878.758-4.572 0-1.685-.253-3.204-.759-4.558z"/></g><g clip-path="url(#9fg0a)"><path fill="#fff" d="M163.915 22.815c-.682.91-1.459 1.62-2.333 2.131a5.467 5.467 0 0 1-2.813.767c-1.354 0-2.36-.41-3.022-1.232-.662-.82-.992-1.955-.992-3.402v-9.858h-1.488v9.858c0 .9.108 1.705.325 2.418.217.713.537 1.323.961 1.83.424.506.956.893 1.597 1.161.64.27 1.39.404 2.247.404 1.147 0 2.188-.269 3.123-.806a8.727 8.727 0 0 0 2.473-2.14l.14 2.294c.04.27.19.404.45.404h.82V11.221h-1.488z"/></g><g clip-path="url(#9fg0a)"><path fill="#fff" d="M197.513 4.06c-.435 0-.806.114-1.116.341-.31.227-.506.491-.589.79l-3.1 11.78c-.093.362-.183.747-.271 1.155-.088.41-.174.845-.256 1.31a16.592 16.592 0 0 0-.682-2.465l-3.628-11.78a2.024 2.024 0 0 0-.634-.814c-.28-.21-.647-.317-1.1-.317h-1.55c-.435 0-.804.116-1.109.35-.305.231-.504.492-.597.781l-3.658 11.78a17.638 17.638 0 0 0-.682 2.59 88.709 88.709 0 0 0-.279-1.373 34.635 34.635 0 0 0-.279-1.217l-3.1-11.78a1.422 1.422 0 0 0-.597-.82c-.305-.208-.684-.31-1.139-.31h-4.403l6.976 22.582h4.743l4.31-13.996c.082-.217.16-.458.231-.72.072-.264.145-.54.217-.83.072.29.145.566.218.83.071.262.149.503.232.72l4.247 13.996h4.742l6.976-22.583z"/></g><g clip-path="url(#9fg0a)"><path fill="#fff" d="M299.494 17.165c-.356.398-.933.597-1.729.597-.392 0-.73-.055-1.014-.163a1.9 1.9 0 0 1-.705-.45 1.758 1.758 0 0 1-.411-.673 2.636 2.636 0 0 1-.132-.853c0-.65.178-1.163.535-1.535.356-.372.933-.558 1.727-.558.796 0 1.373.186 1.729.558.356.372.535.884.535 1.535 0 .63-.179 1.145-.535 1.542zm-1.689 8.742c.676.016 1.289.06 1.836.132.548.072.993.193 1.333.364a.864.864 0 0 1 .512.83c0 .237-.052.456-.155.658-.104.202-.287.375-.55.52-.264.144-.618.257-1.062.34-.445.083-1.013.124-1.705.124-.641 0-1.17-.039-1.588-.116-.419-.077-.752-.183-1-.318-.248-.134-.421-.294-.52-.48a1.299 1.299 0 0 1-.147-.62c0-.32.095-.607.287-.86.191-.253.436-.483.736-.69zm-.04-15.616c-.939 0-1.813.122-2.619.364-.805.243-1.506.59-2.1 1.04a4.924 4.924 0 0 0-1.403 1.641c-.34.646-.511 1.372-.511 2.178 0 .972.243 1.821.728 2.55.487.728 1.148 1.315 1.985 1.76a4.373 4.373 0 0 0-.961.604 3.972 3.972 0 0 0-.675.72 2.74 2.74 0 0 0-.395.776 2.498 2.498 0 0 0-.124.751c0 .59.114 1.07.341 1.442.227.372.537.677.93.914-.744.29-1.322.672-1.736 1.147-.414.475-.62 1.07-.62 1.783 0 .547.145 1.075.434 1.581.289.506.736.953 1.341 1.341.604.387 1.364.7 2.278.937.915.238 2.002.357 3.263.357 1.281 0 2.418-.163 3.41-.489.992-.325 1.829-.756 2.511-1.294.682-.537 1.199-1.152 1.55-1.844a4.652 4.652 0 0 0 .527-2.124c0-.775-.145-1.412-.434-1.914a3.423 3.423 0 0 0-1.147-1.2 5.065 5.065 0 0 0-1.619-.652 14.68 14.68 0 0 0-1.853-.287 28.43 28.43 0 0 0-1.852-.108 23.393 23.393 0 0 1-1.62-.093c-.475-.047-.858-.13-1.147-.248-.289-.119-.434-.313-.434-.582 0-.268.175-.51.527-.728.227.041.46.07.698.085.237.016.48.023.727.023.91 0 1.762-.12 2.558-.364.796-.243 1.485-.589 2.07-1.038a4.948 4.948 0 0 0 1.379-1.635c.336-.64.504-1.365.504-2.17a4.97 4.97 0 0 0-.054-.745 6.15 6.15 0 0 0-.148-.697l1.163-.263c.361-.083.617-.202.767-.357.15-.155.225-.367.225-.636v-1.75h-4.836c-1.054-.518-2.263-.776-3.628-.776z"/></g><g clip-path="url(#9fg0a)"><path fill="#fff" d="M322.456 13.988a5.47 5.47 0 0 0-1.054-1.937 4.824 4.824 0 0 0-1.713-1.27c-.676-.306-1.454-.459-2.333-.459-.516 0-.994.05-1.433.147-.44.1-.847.233-1.225.403-.377.171-.73.38-1.061.628-.33.248-.651.517-.961.806l-.28-.93c-.185-.537-.578-.806-1.177-.806h-2.976v16.074h4.805v-11.47a5.906 5.906 0 0 1 1.341-.907 3.36 3.36 0 0 1 1.48-.333c.702 0 1.234.22 1.597.658.361.44.542 1.052.542 1.837v10.215h4.804V16.43c0-.878-.118-1.692-.356-2.44"/></g><g clip-path="url(#9fg0a)"><path fill="#fff" d="M256.862 16.677c.165-.98.506-1.733 1.022-2.255.517-.522 1.231-.783 2.14-.783.517 0 .955.088 1.317.264.362.175.654.405.876.69.222.284.382.606.481.968.098.362.146.734.146 1.116zm8.27-4.417a6.368 6.368 0 0 0-2.28-1.442c-.883-.33-1.857-.496-2.92-.496-1.231 0-2.334.212-3.31.636a7.531 7.531 0 0 0-2.496 1.72 7.506 7.506 0 0 0-1.58 2.527 8.46 8.46 0 0 0-.551 3.053c0 1.426.215 2.676.643 3.751.43 1.075 1.013 1.974 1.751 2.697a7.303 7.303 0 0 0 2.59 1.636c.986.366 2.042.55 3.169.55.547 0 1.123-.039 1.728-.117a9.563 9.563 0 0 0 1.814-.418 8.337 8.337 0 0 0 1.767-.837 7.172 7.172 0 0 0 1.604-1.387l-1.395-1.72c-.197-.28-.486-.42-.868-.42-.29 0-.566.068-.83.202-.263.134-.552.284-.868.45a7.26 7.26 0 0 1-1.077.45c-.402.134-.883.201-1.44.201-1.045 0-1.898-.303-2.559-.907-.661-.605-1.069-1.579-1.224-2.922h9.27c.216 0 .395-.025.533-.078a.647.647 0 0 0 .334-.278c.082-.135.14-.315.17-.543.031-.227.047-.52.047-.883 0-1.157-.179-2.194-.535-3.108z"/></g><g clip-path="url(#9fg0a)"><path fill="#fff" d="M227.381 20.73c-.155.636-.37 1.147-.644 1.535a2.4 2.4 0 0 1-.984.837c-.382.17-.801.255-1.255.255-.434 0-.863-.082-1.287-.248-.424-.165-.816-.444-1.178-.837v-6.82c.424-.495.853-.873 1.286-1.13.435-.259.947-.388 1.536-.388.443 0 .84.08 1.185.24.346.16.636.418.868.775.233.356.41.816.527 1.38.12.563.178 1.247.178 2.053 0 .93-.077 1.713-.232 2.348zm3.549-8.26a5.46 5.46 0 0 0-1.906-1.59c-.745-.372-1.571-.558-2.48-.558-.91 0-1.733.178-2.473.534a8.003 8.003 0 0 0-2.038 1.42V3.44h-4.804v23.204h3.192c.311 0 .559-.062.744-.186.187-.124.32-.352.404-.683l.169-.806c.248.28.504.538.768.776a4.387 4.387 0 0 0 1.93 1.007c.382.093.816.14 1.301.14 1.013 0 1.938-.21 2.775-.628a6.407 6.407 0 0 0 2.163-1.767c.604-.76 1.071-1.672 1.402-2.736.331-1.064.496-2.248.496-3.55 0-1.198-.142-2.283-.426-3.254-.285-.972-.69-1.8-1.217-2.488z"/></g><g clip-path="url(#9fg0a)"><path fill="#fff" d="M287.908 4.17a3 3 0 0 0-2.077-.822c-.393 0-.76.072-1.1.217a2.899 2.899 0 0 0-1.527 1.503c-.15.341-.225.708-.225 1.101 0 .382.075.741.225 1.077.15.336.356.63.62.883s.565.455.906.604c.341.15.708.226 1.101.226.403 0 .783-.076 1.14-.226.356-.149.668-.35.937-.604.269-.253.48-.547.636-.883.154-.336.232-.695.232-1.077 0-.393-.078-.76-.232-1.1a2.91 2.91 0 0 0-.636-.9"/></g><g clip-path="url(#9fg0a)"><path fill="#fff" d="M204.535 16.677c.165-.98.506-1.733 1.022-2.255.517-.522 1.231-.783 2.14-.783.517 0 .955.088 1.317.264.362.175.654.405.876.69.222.284.382.606.481.968.098.362.146.734.146 1.116zm8.27-4.417a6.368 6.368 0 0 0-2.28-1.442c-.883-.33-1.857-.496-2.921-.496-1.23 0-2.333.212-3.309.636a7.532 7.532 0 0 0-2.496 1.72 7.507 7.507 0 0 0-1.58 2.527 8.46 8.46 0 0 0-.551 3.053c0 1.426.215 2.676.643 3.751.43 1.075 1.013 1.974 1.751 2.697a7.303 7.303 0 0 0 2.589 1.636c.987.366 2.043.55 3.17.55.547 0 1.123-.039 1.728-.117a9.599 9.599 0 0 0 1.814-.418 8.337 8.337 0 0 0 1.767-.837 7.172 7.172 0 0 0 1.604-1.387l-1.395-1.72c-.197-.28-.486-.42-.868-.42-.29 0-.566.068-.83.202-.263.134-.552.284-.868.45a7.261 7.261 0 0 1-1.077.45c-.402.134-.883.201-1.44.201-1.045 0-1.898-.303-2.559-.907-.661-.605-1.069-1.579-1.224-2.922h9.27c.216 0 .395-.025.533-.078a.646.646 0 0 0 .334-.278c.082-.135.14-.315.17-.543.031-.227.047-.52.047-.883 0-1.157-.179-2.194-.535-3.108-.357-.915-.853-1.687-1.487-2.317z"/></g><g clip-path="url(#9fg0a)"><path fill="#fff" d="M283.475 26.644V10.57h4.805v16.074z"/></g><g clip-path="url(#9fg0a)"><path fill="#fff" d="M279.786 18.56a5.128 5.128 0 0 0-1.193-.82c-.445-.223-.9-.417-1.365-.583-.464-.165-.92-.315-1.363-.449a11.46 11.46 0 0 1-1.194-.426 2.914 2.914 0 0 1-.845-.52.969.969 0 0 1-.317-.744c0-.413.163-.736.488-.968.325-.233.793-.349 1.402-.349.424 0 .801.05 1.132.147.331.098.628.204.892.318l.736.317c.227.1.454.148.682.148.216 0 .395-.04.535-.124.14-.083.27-.222.394-.419l1.085-1.689a6.18 6.18 0 0 0-1.038-.829 7.247 7.247 0 0 0-1.302-.659 8.9 8.9 0 0 0-3.208-.589c-1.065 0-1.995.137-2.791.41-.795.274-1.457.644-1.983 1.11a4.516 4.516 0 0 0-1.186 1.618 4.903 4.903 0 0 0-.395 1.946c0 .734.108 1.36.325 1.875.217.517.501.954.853 1.31.351.357.752.651 1.201.884.45.232.907.431 1.372.596.465.166.922.313 1.371.442.45.13.851.27 1.201.42.352.148.636.327.853.533.218.207.326.47.326.791 0 .176-.037.346-.108.511a1.294 1.294 0 0 1-.342.45c-.155.134-.362.24-.619.318a3.36 3.36 0 0 1-.947.116c-.526 0-.963-.062-1.309-.186a6.01 6.01 0 0 1-.906-.403l-.72-.403a1.522 1.522 0 0 0-.753-.186c-.3 0-.545.06-.736.178a1.422 1.422 0 0 0-.473.49l-1.116 1.765c.31.28.681.54 1.116.783.433.243.906.452 1.418.628.512.176 1.041.315 1.59.418a8.863 8.863 0 0 0 1.641.156c1.096 0 2.065-.135 2.907-.404.842-.268 1.55-.645 2.124-1.13a4.694 4.694 0 0 0 1.294-1.737 5.51 5.51 0 0 0 .434-2.2c0-.652-.106-1.21-.318-1.675a3.666 3.666 0 0 0-.845-1.186"/></g><g clip-path="url(#9fg0a)"><path fill="#fff" d="M244.788 21.684a6.54 6.54 0 0 1-.628.66 3.246 3.246 0 0 1-.674.471c-.238.124-.499.22-.783.287a4.16 4.16 0 0 1-.953.101 2.29 2.29 0 0 1-1.039-.233c-.31-.155-.575-.41-.798-.767-.223-.356-.396-.824-.52-1.403-.124-.578-.185-1.29-.185-2.139 0-.878.077-1.627.232-2.247.156-.62.369-1.124.644-1.51a2.49 2.49 0 0 1 .969-.846 2.822 2.822 0 0 1 1.224-.264c.465 0 .909.08 1.333.241.423.16.816.441 1.178.844zm0-10.106a5.712 5.712 0 0 0-1.55-.96c-.568-.239-1.271-.358-2.108-.358-1.024 0-1.958.212-2.806.636a6.519 6.519 0 0 0-2.178 1.76c-.604.748-1.072 1.637-1.402 2.665-.331 1.03-.496 2.142-.496 3.34 0 1.302.147 2.462.441 3.48.295 1.018.701 1.878 1.217 2.581.517.703 1.132 1.24 1.845 1.612a4.95 4.95 0 0 0 2.325.558c.547 0 1.057-.055 1.526-.163a5.96 5.96 0 0 0 1.318-.465 6.357 6.357 0 0 0 1.139-.72 9.419 9.419 0 0 0 1.008-.93l.371 1.224c.187.537.579.806 1.179.806h2.976V3.44h-4.805z"/></g><g clip-path="url(#9fg0a)"><path fill="#fff" d="M72.833 43.461v-5h2.734c.62 0 1.146.102 1.578.305.432.203.76.495.985.875.223.38.336.831.336 1.351 0 .443-.104.852-.309 1.227a2.294 2.294 0 0 1-.914.902c-.404.227-.892.34-1.465.34zm4.234.61c.469-.136.881-.35 1.238-.645.357-.294.633-.65.828-1.067a3.17 3.17 0 0 0 .293-1.367c0-.714-.156-1.32-.468-1.824a2.937 2.937 0 0 0-1.336-1.14c-.578-.258-1.263-.387-2.055-.387h-3.695v11.375h.961v-4.743h3.312l2.742 4.743h1.032v-.102z"/></g><g clip-path="url(#9fg0a)"><path fill="#fff" d="M84.943 41.203c.504 0 .937.126 1.296.38.36.252.632.586.817 1.003.184.417.282.87.293 1.36v.101h-5.055c.063-.567.213-1.066.453-1.496.24-.43.548-.762.926-.996zm3.343 3.641v-.57c0-.755-.13-1.425-.39-2.008a3.095 3.095 0 0 0-1.149-1.367c-.505-.328-1.107-.492-1.804-.492-.646 0-1.247.176-1.8.531-.556.354-.999.856-1.329 1.508-.33.651-.496 1.398-.496 2.242v.336c0 .797.162 1.51.488 2.14.325.63.776 1.122 1.351 1.477a3.646 3.646 0 0 0 1.95.531c.708 0 1.308-.137 1.8-.41a3.449 3.449 0 0 0 1.2-1.09l-.594-.445c-.302.401-.646.694-1.03.88-.387.183-.832.276-1.337.276a2.605 2.605 0 0 1-1.5-.445 2.987 2.987 0 0 1-1.024-1.215 3.89 3.89 0 0 1-.367-1.699v-.18z"/></g><g clip-path="url(#9fg0a)"><path fill="#fff" d="M91.274 44.578c-.425-.192-.749-.44-.973-.742-.224-.302-.336-.68-.336-1.133 0-.422.122-.808.368-1.156.244-.349.592-.626 1.043-.832.45-.206.972-.309 1.566-.309.641 0 1.196.11 1.668.324.471.216.832.516 1.082.9.25.382.375.815.375 1.3h-.945c0-.297-.086-.579-.258-.844a1.816 1.816 0 0 0-.754-.64c-.33-.162-.72-.243-1.168-.243-.464 0-.848.07-1.152.211-.305.141-.53.323-.676.547a1.278 1.278 0 0 0-.219.711c0 .27.06.5.176.687.117.188.34.36.668.516.328.156.8.305 1.414.445.698.161 1.262.351 1.691.567.43.215.75.48.957.79.208.308.313.687.313 1.135 0 .458-.129.868-.387 1.227-.258.36-.622.638-1.094.836-.47.198-1.017.297-1.636.297-.688 0-1.282-.116-1.782-.348-.5-.23-.88-.542-1.14-.93a2.198 2.198 0 0 1-.39-1.253h.93c.04.61.292 1.05.753 1.324.461.273 1.004.41 1.63.41.457 0 .85-.07 1.178-.21.328-.142.577-.326.746-.556.17-.229.254-.479.254-.75 0-.4-.16-.753-.484-1.054-.323-.302-.917-.544-1.78-.727-.668-.14-1.214-.308-1.638-.5"/></g><g clip-path="url(#9fg0a)"><path fill="#fff" d="M99.384 44.578c-.425-.192-.749-.44-.973-.742-.224-.302-.336-.68-.336-1.133 0-.422.122-.808.368-1.156.244-.349.592-.626 1.043-.832.45-.206.972-.309 1.566-.309.641 0 1.196.11 1.668.324.471.216.832.516 1.082.9.25.382.375.815.375 1.3h-.945c0-.297-.086-.579-.258-.844a1.816 1.816 0 0 0-.754-.64c-.33-.162-.72-.243-1.168-.243-.464 0-.848.07-1.152.211-.305.141-.53.323-.676.547a1.278 1.278 0 0 0-.219.711c0 .27.06.5.176.687.117.188.34.36.668.516.328.156.8.305 1.414.445.698.161 1.262.351 1.691.567.43.215.75.48.957.79.208.308.313.687.313 1.135 0 .458-.129.868-.387 1.227-.258.36-.622.638-1.094.836-.47.198-1.017.297-1.636.297-.688 0-1.282-.116-1.782-.348-.5-.23-.88-.542-1.14-.93a2.198 2.198 0 0 1-.39-1.253h.929c.041.61.293 1.05.754 1.324.461.273 1.004.41 1.63.41.457 0 .85-.07 1.178-.21.328-.142.577-.326.746-.556.17-.229.254-.479.254-.75 0-.4-.16-.753-.484-1.054-.323-.302-.917-.544-1.78-.727-.668-.14-1.214-.308-1.638-.5"/></g><g clip-path="url(#9fg0a)"><path fill="#fff" d="M107.087 46.65a4.415 4.415 0 0 1-.332-1.735v-.25c0-.62.11-1.193.332-1.719.221-.526.545-.948.973-1.266.426-.317.934-.476 1.523-.476.588 0 1.098.16 1.527.476a3 3 0 0 1 .981 1.266c.224.526.336 1.1.336 1.72v.25c0 .63-.111 1.207-.332 1.733a2.936 2.936 0 0 1-.973 1.258c-.427.312-.935.47-1.523.47-.594 0-1.106-.158-1.535-.47a2.914 2.914 0 0 1-.977-1.258zm-.801-4.18c-.312.645-.469 1.377-.469 2.195v.25c0 .817.157 1.55.469 2.195a3.633 3.633 0 0 0 1.328 1.516c.573.364 1.235.546 1.985.546s1.408-.182 1.976-.546a3.652 3.652 0 0 0 1.321-1.516c.312-.646.468-1.378.468-2.195v-.25c0-.818-.156-1.55-.468-2.196a3.626 3.626 0 0 0-1.329-1.515c-.573-.365-1.234-.547-1.984-.547-.745 0-1.402.182-1.973.547-.57.364-1.01.87-1.324 1.515z"/></g><g clip-path="url(#9fg0a)"><path fill="#fff" d="M121.653 40.563v8.453h-.898l-.024-1.07c-.557.817-1.453 1.226-2.687 1.226-.875 0-1.558-.256-2.047-.769-.49-.513-.735-1.324-.735-2.434v-5.406h.938v5.422c0 .844.178 1.45.535 1.82.356.37.83.555 1.418.555.708 0 1.272-.15 1.691-.449.42-.3.71-.707.872-1.223v-6.125z"/></g><g clip-path="url(#9fg0a)"><path fill="#fff" d="M127.989 41.352a4.304 4.304 0 0 0-.625-.055c-.609 0-1.112.17-1.508.508-.396.34-.675.8-.836 1.383v5.828h-.937v-8.453h.914l.023 1.328c.235-.469.551-.833.949-1.094.399-.26.874-.39 1.426-.39a2.187 2.187 0 0 1 .625.093z"/></g><g clip-path="url(#9fg0a)"><path fill="#fff" d="M135.7 46.4a2.67 2.67 0 0 1-.484 1.425 3.013 3.013 0 0 1-1.176.992 3.569 3.569 0 0 1-1.582.355c-.771 0-1.427-.183-1.969-.55a3.41 3.41 0 0 1-1.226-1.504c-.277-.636-.415-1.357-.415-2.164v-.328c0-.802.138-1.523.415-2.16a3.402 3.402 0 0 1 1.226-1.508c.542-.368 1.192-.55 1.953-.55.604 0 1.149.121 1.633.366s.87.595 1.156 1.051c.286.456.443.983.47 1.582h-.892a2.39 2.39 0 0 0-.355-1.168 2.135 2.135 0 0 0-.844-.766 2.536 2.536 0 0 0-1.168-.269c-.609 0-1.113.155-1.512.465-.398.31-.69.722-.875 1.238a5.06 5.06 0 0 0-.277 1.72v.327c0 .635.091 1.21.274 1.722.182.513.473.925.875 1.235.4.31.911.465 1.531.465.401 0 .774-.078 1.121-.23.346-.154.63-.38.851-.677a1.99 1.99 0 0 0 .38-1.07z"/></g><g clip-path="url(#9fg0a)"><path fill="#fff" d="M140.685 41.203c.504 0 .937.126 1.296.38.36.252.632.586.817 1.003.184.417.282.87.293 1.36v.101h-5.055c.063-.567.213-1.066.453-1.496.239-.43.548-.762.926-.996zm3.343 3.641v-.57c0-.755-.13-1.425-.39-2.008a3.095 3.095 0 0 0-1.149-1.367c-.505-.328-1.107-.492-1.804-.492-.646 0-1.247.176-1.801.531-.555.354-.998.856-1.328 1.508-.331.651-.496 1.398-.496 2.242v.336c0 .797.162 1.51.488 2.14.325.63.776 1.122 1.351 1.477a3.646 3.646 0 0 0 1.95.531c.708 0 1.308-.137 1.8-.41a3.449 3.449 0 0 0 1.2-1.09l-.594-.445c-.302.401-.646.694-1.031.88-.386.183-.831.276-1.336.276a2.605 2.605 0 0 1-1.5-.445 2.987 2.987 0 0 1-1.024-1.215 3.89 3.89 0 0 1-.367-1.699v-.18z"/></g><g clip-path="url(#9fg0a)"><path fill="#fff" d="M147.017 44.578c-.425-.192-.749-.44-.973-.742-.224-.302-.336-.68-.336-1.133 0-.422.122-.808.368-1.156.244-.349.592-.626 1.043-.832.45-.206.972-.309 1.566-.309.641 0 1.196.11 1.668.324.471.216.832.516 1.082.9.25.382.375.815.375 1.3h-.945c0-.297-.086-.579-.258-.844a1.816 1.816 0 0 0-.754-.64c-.331-.162-.72-.243-1.168-.243-.464 0-.848.07-1.152.211-.305.141-.531.323-.676.547a1.278 1.278 0 0 0-.219.711c0 .27.06.5.176.687.117.188.34.36.668.516.328.156.8.305 1.414.445.698.161 1.262.351 1.691.567.43.215.749.48.957.79.208.308.313.687.313 1.135 0 .458-.129.868-.387 1.227-.258.36-.622.638-1.094.836-.47.198-1.017.297-1.636.297-.688 0-1.282-.116-1.782-.348-.5-.23-.88-.542-1.14-.93a2.198 2.198 0 0 1-.39-1.253h.929c.041.61.293 1.05.754 1.324.461.273 1.004.41 1.63.41.457 0 .85-.07 1.178-.21.328-.142.577-.326.746-.556.169-.229.254-.479.254-.75 0-.4-.161-.753-.484-1.054-.323-.302-.917-.544-1.78-.727-.668-.14-1.214-.308-1.638-.5"/></g><g clip-path="url(#9fg0a)"><path fill="#fff" d="M159.442 40.04c0-.324.065-.619.196-.887.13-.269.32-.482.57-.64.25-.16.552-.239.906-.239.323 0 .6.066.832.2.232.132.409.307.532.526.122.22.183.456.183.711 0 .36-.099.681-.297.965-.198.284-.479.561-.844.832l-1.031.773a6.287 6.287 0 0 1-.781-1.19zm2.954 8.038a3.323 3.323 0 0 1-1.376.297c-.567 0-1.046-.102-1.437-.308a2.087 2.087 0 0 1-.875-.82 2.253 2.253 0 0 1-.289-1.13c0-.339.104-.704.312-1.097.208-.394.612-.835 1.211-1.325l.368-.28.11.124 3.171 3.688a3.8 3.8 0 0 1-1.195.851zm3.866.938l-1.562-1.82c.672-.886 1.008-1.977 1.008-3.274h-.867c0 .97-.237 1.84-.71 2.61l-3.126-3.649 1.023-.789a5.32 5.32 0 0 0 1.094-1.102c.281-.39.422-.817.422-1.28 0-.407-.098-.78-.293-1.122a2.12 2.12 0 0 0-.844-.813c-.367-.2-.798-.3-1.293-.3-.526 0-.986.105-1.379.316a2.21 2.21 0 0 0-.91.902c-.214.391-.32.85-.32 1.375 0 .443.105.875.316 1.297.211.422.535.902.973 1.438l-.109.078a10.92 10.92 0 0 0-1.18 1.012 3.986 3.986 0 0 0-.746 1.023 2.627 2.627 0 0 0-.278 1.2c0 .604.144 1.136.43 1.597.286.461.696.82 1.231 1.074.533.255 1.16.383 1.878.383.589 0 1.153-.113 1.692-.34a4.497 4.497 0 0 0 1.433-.957l.985 1.141z"/></g><g clip-path="url(#9fg0a)"><path fill="#fff" d="M171.723 40.563h.93v8.453h-.93zm.942-2.898a.62.62 0 0 1 .175.453.6.6 0 0 1-.175.441.642.642 0 0 1-.473.176.6.6 0 0 1-.641-.617c0-.183.059-.333.176-.453a.616.616 0 0 1 .465-.18z"/></g><g clip-path="url(#9fg0a)"><path fill="#fff" d="M180.891 41.15c.461.494.691 1.28.691 2.358v5.508h-.937v-5.508c0-.833-.169-1.424-.508-1.773-.339-.349-.833-.524-1.484-.524-.61 0-1.13.192-1.563.575-.432.383-.75.858-.953 1.426v5.804h-.937v-8.453h.898l.031 1.43a3.368 3.368 0 0 1 1.164-1.164 3.056 3.056 0 0 1 1.594-.422c.875 0 1.543.247 2.004.742"/></g><g clip-path="url(#9fg0a)"><path fill="#fff" d="M185.165 44.578c-.425-.192-.75-.44-.974-.742-.223-.302-.336-.68-.336-1.133 0-.422.122-.808.368-1.156.245-.349.592-.626 1.043-.832.45-.206.972-.309 1.567-.309.64 0 1.196.11 1.668.324.472.216.832.516 1.082.9.25.382.375.815.375 1.3h-.946c0-.297-.086-.579-.257-.844a1.822 1.822 0 0 0-.754-.64c-.332-.162-.72-.243-1.168-.243-.465 0-.849.07-1.153.211-.304.141-.531.323-.675.547-.147.223-.22.461-.22.711 0 .27.059.5.177.687.116.188.339.36.668.516.328.156.8.305 1.414.445.697.161 1.261.351 1.69.567.431.215.749.48.957.79.208.308.314.687.314 1.135 0 .458-.129.868-.388 1.227-.258.36-.622.638-1.094.836-.471.198-1.016.297-1.636.297-.688 0-1.282-.116-1.782-.348-.5-.23-.878-.542-1.14-.93a2.198 2.198 0 0 1-.391-1.253h.931c.041.61.292 1.05.753 1.324.461.273 1.004.41 1.63.41.458 0 .85-.07 1.178-.21.328-.142.577-.326.746-.556.17-.229.254-.479.254-.75 0-.4-.16-.753-.483-1.054-.324-.302-.918-.544-1.782-.727-.667-.14-1.212-.308-1.636-.5"/></g><g clip-path="url(#9fg0a)"><path fill="#fff" d="M197.973 44.875c0 .672-.093 1.273-.277 1.801-.185.528-.464.944-.836 1.246-.372.302-.835.453-1.387.453-.599 0-1.099-.132-1.5-.394a2.653 2.653 0 0 1-.937-1.082v-4.07a2.86 2.86 0 0 1 .898-1.165c.391-.297.898-.445 1.523-.445.558 0 1.024.151 1.399.453.375.302.655.716.84 1.242.184.526.277 1.125.277 1.797zm.937-.164c0-.875-.127-1.636-.382-2.28-.255-.647-.626-1.146-1.114-1.497-.487-.352-1.069-.528-1.746-.528-.589 0-1.104.117-1.547.348a2.96 2.96 0 0 0-1.101 1.004l-.047-1.195h-.875v11.703h.938v-4.32c.291.39.66.692 1.105.906.445.213.96.32 1.543.32.667 0 1.243-.18 1.73-.543.488-.362.86-.867 1.114-1.516.255-.648.382-1.394.382-2.238z"/></g><g clip-path="url(#9fg0a)"><path fill="#fff" d="M201.09 40.563h.93v8.453h-.93zm.942-2.898a.62.62 0 0 1 .175.453.6.6 0 0 1-.175.441.64.64 0 0 1-.473.176.63.63 0 0 1-.465-.176.6.6 0 0 1-.176-.44c0-.184.06-.334.176-.454a.618.618 0 0 1 .465-.18z"/></g><g clip-path="url(#9fg0a)"><path fill="#fff" d="M208.473 41.352a4.293 4.293 0 0 0-.625-.055c-.609 0-1.112.17-1.508.508-.395.34-.675.8-.836 1.383v5.828h-.937v-8.453h.914l.023 1.328c.235-.469.551-.833.949-1.094.399-.26.874-.39 1.426-.39a2.188 2.188 0 0 1 .625.093z"/></g><g clip-path="url(#9fg0a)"><path fill="#fff" d="M212.075 48.344c-.38 0-.714-.073-1-.219a1.634 1.634 0 0 1-.664-.594 1.546 1.546 0 0 1-.235-.836c0-.39.122-.726.364-1.007.242-.282.591-.497 1.047-.649.456-.15 1.001-.226 1.636-.226h1.602v1.867a2.69 2.69 0 0 1-1.047 1.2zm3.754-.172a6.558 6.558 0 0 1-.067-.93v-4.086c0-.598-.129-1.104-.386-1.515a2.393 2.393 0 0 0-1.082-.926c-.464-.206-1-.309-1.61-.309-.62 0-1.177.118-1.672.352-.495.234-.88.543-1.156.926-.276.383-.414.785-.414 1.207l.938.008c0-.313.097-.599.293-.86.195-.26.465-.468.812-.62.347-.154.733-.23 1.16-.23.698 0 1.236.171 1.613.518.378.347.567.824.567 1.434v.953h-1.727c-.786 0-1.469.108-2.05.324-.582.216-1.027.526-1.336.93-.31.403-.465.88-.465 1.426 0 .458.113.87.34 1.234.226.364.545.65.957.855.411.206.887.31 1.429.31.625 0 1.181-.125 1.668-.372a3.464 3.464 0 0 0 1.192-.965c.026.511.089.903.187 1.18h1v-.102a2.862 2.862 0 0 1-.191-.742z"/></g><g clip-path="url(#9fg0a)"><path fill="#fff" d="M221.614 49.047a2.494 2.494 0 0 1-.441.09 4.523 4.523 0 0 1-.559.035c-.583 0-1.036-.169-1.359-.508-.324-.339-.485-.909-.485-1.71v-5.626h-1.547v-.765h1.547v-2.172h.946v2.172h1.742v.765h-1.742v5.625c0 .542.097.91.293 1.106.195.195.461.293.8.293.188 0 .443-.029.766-.086z"/></g><g clip-path="url(#9fg0a)"><path fill="#fff" d="M223.52 40.563h.93v8.453h-.93zm.941-2.898c.118.12.176.27.176.453a.596.596 0 0 1-.176.441.638.638 0 0 1-.472.176.6.6 0 0 1-.641-.617c0-.183.059-.333.176-.453a.616.616 0 0 1 .465-.18z"/></g><g clip-path="url(#9fg0a)"><path fill="#fff" d="M227.426 44.915v-.25c0-.62.11-1.193.332-1.719a2.99 2.99 0 0 1 .973-1.266c.426-.317.934-.476 1.523-.476.589 0 1.098.16 1.527.476a3 3 0 0 1 .981 1.266c.224.526.336 1.1.336 1.72v.25c0 .63-.111 1.207-.332 1.733a2.936 2.936 0 0 1-.973 1.258c-.427.312-.934.47-1.523.47-.594 0-1.106-.158-1.535-.47a2.922 2.922 0 0 1-.977-1.258zm-.938-.25v.25c0 .817.157 1.55.469 2.195a3.633 3.633 0 0 0 1.328 1.516c.574.364 1.235.546 1.985.546s1.409-.182 1.976-.546a3.652 3.652 0 0 0 1.321-1.516c.312-.646.468-1.378.468-2.195v-.25c0-.818-.156-1.55-.468-2.196a3.62 3.62 0 0 0-1.329-1.515c-.573-.365-1.234-.547-1.984-.547-.745 0-1.402.182-1.973.547-.57.364-1.011.87-1.324 1.515z"/></g><g clip-path="url(#9fg0a)"><path fill="#fff" d="M241.657 41.15c.461.494.691 1.28.691 2.358v5.508h-.937v-5.508c0-.833-.169-1.424-.508-1.773-.339-.349-.833-.524-1.484-.524-.61 0-1.13.192-1.563.575-.432.383-.75.858-.953 1.426v5.804h-.937v-8.453h.898l.031 1.43a3.368 3.368 0 0 1 1.164-1.164 3.056 3.056 0 0 1 1.594-.422c.875 0 1.543.247 2.004.742"/></g><g clip-path="url(#9fg0a)"><path fill="#fff" d="M245.93 44.578c-.425-.192-.749-.44-.973-.742-.223-.302-.336-.68-.336-1.133 0-.422.122-.808.368-1.156.245-.349.592-.626 1.043-.832.45-.206.972-.309 1.566-.309.641 0 1.196.11 1.668.324.472.216.832.516 1.082.9.25.382.375.815.375 1.3h-.945c0-.297-.086-.579-.258-.844a1.816 1.816 0 0 0-.754-.64c-.331-.162-.72-.243-1.168-.243-.464 0-.848.07-1.152.211-.305.141-.531.323-.676.547a1.278 1.278 0 0 0-.219.711c0 .27.059.5.176.687.117.188.34.36.668.516.328.156.8.305 1.414.445.698.161 1.262.351 1.691.567.43.215.749.48.957.79.208.308.313.687.313 1.135 0 .458-.129.868-.387 1.227-.258.36-.622.638-1.094.836-.471.198-1.016.297-1.636.297-.688 0-1.282-.116-1.782-.348-.5-.23-.879-.542-1.14-.93a2.198 2.198 0 0 1-.391-1.253h.93c.042.61.293 1.05.754 1.324.461.273 1.004.41 1.629.41.458 0 .851-.07 1.179-.21.328-.142.577-.326.746-.556.169-.229.254-.479.254-.75 0-.4-.161-.753-.484-1.054-.323-.302-.917-.544-1.781-.727-.667-.14-1.212-.308-1.637-.5"/></g><g clip-path="url(#9fg0a)"><path fill="#fff" d="M263.145 46.4a2.669 2.669 0 0 1-.484 1.425 3.013 3.013 0 0 1-1.176.992 3.569 3.569 0 0 1-1.582.355c-.771 0-1.427-.183-1.969-.55a3.417 3.417 0 0 1-1.226-1.504c-.277-.636-.415-1.357-.415-2.164v-.328c0-.802.138-1.523.415-2.16a3.41 3.41 0 0 1 1.226-1.508c.542-.368 1.192-.55 1.953-.55.605 0 1.149.121 1.633.366s.87.595 1.156 1.051c.286.456.443.983.47 1.582h-.892a2.39 2.39 0 0 0-.355-1.168 2.135 2.135 0 0 0-.844-.766 2.536 2.536 0 0 0-1.168-.269c-.609 0-1.113.155-1.512.465-.398.31-.69.722-.875 1.238a5.084 5.084 0 0 0-.277 1.72v.327c0 .635.091 1.21.274 1.722.182.513.473.925.875 1.235.401.31.911.465 1.531.465.401 0 .774-.078 1.121-.23.347-.154.63-.38.851-.677a1.99 1.99 0 0 0 .38-1.07z"/></g><g clip-path="url(#9fg0a)"><path fill="#fff" d="M268.926 41.352a4.293 4.293 0 0 0-.625-.055c-.609 0-1.112.17-1.508.508-.395.34-.675.8-.836 1.383v5.828h-.937v-8.453h.914l.023 1.328c.235-.469.551-.833.949-1.094.399-.26.874-.39 1.426-.39a2.187 2.187 0 0 1 .625.093z"/></g><g clip-path="url(#9fg0a)"><path fill="#fff" d="M274.567 37.024l-1.492 2.18h.82l1.805-2.18zm-1.047 4.18c.505 0 .938.126 1.297.38.36.252.632.586.817 1.002.184.417.282.871.293 1.36v.101h-5.055a3.929 3.929 0 0 1 .453-1.496c.24-.429.548-.76.926-.996zm3.344 3.64v-.57c0-.755-.13-1.425-.39-2.008a3.086 3.086 0 0 0-1.149-1.367c-.505-.328-1.106-.492-1.805-.492-.645 0-1.246.177-1.8.531-.555.355-.998.857-1.329 1.508-.33.651-.496 1.398-.496 2.242v.336c0 .797.163 1.511.489 2.141.325.63.776 1.122 1.351 1.476.575.355 1.226.531 1.95.531.707 0 1.308-.136 1.8-.41a3.436 3.436 0 0 0 1.2-1.09l-.594-.445c-.302.401-.646.694-1.032.88-.385.184-.831.276-1.336.276a2.61 2.61 0 0 1-1.5-.445 2.993 2.993 0 0 1-1.023-1.215 3.887 3.887 0 0 1-.367-1.699v-.18z"/></g><g clip-path="url(#9fg0a)"><path fill="#fff" d="M281.083 48.344c-.38 0-.714-.073-1-.219a1.634 1.634 0 0 1-.664-.594 1.547 1.547 0 0 1-.235-.836c0-.39.122-.726.364-1.007.242-.282.591-.497 1.047-.649.456-.15 1.001-.226 1.636-.226h1.602v1.867a2.69 2.69 0 0 1-1.047 1.2zm3.754-.172a6.561 6.561 0 0 1-.067-.93v-4.086c0-.598-.129-1.104-.386-1.515a2.393 2.393 0 0 0-1.082-.926c-.464-.206-1-.309-1.61-.309-.62 0-1.177.118-1.672.352-.495.234-.88.543-1.156.926-.276.383-.414.785-.414 1.207l.938.008c0-.313.097-.599.293-.86.195-.26.465-.468.812-.62.347-.154.733-.23 1.16-.23.698 0 1.236.171 1.613.518.378.347.567.824.567 1.434v.953h-1.727c-.786 0-1.469.108-2.05.324-.582.216-1.027.526-1.336.93-.31.403-.465.88-.465 1.426 0 .458.113.87.34 1.234.226.364.545.65.957.855.411.206.887.31 1.43.31.624 0 1.18-.125 1.667-.372a3.464 3.464 0 0 0 1.192-.965c.026.511.09.903.187 1.18h1v-.102a2.862 2.862 0 0 1-.191-.742z"/></g><g clip-path="url(#9fg0a)"><path fill="#fff" d="M290.622 49.047c-.11.036-.258.066-.442.09a4.519 4.519 0 0 1-.558.035c-.584 0-1.037-.169-1.36-.508-.324-.339-.485-.909-.485-1.71v-5.626h-1.547v-.765h1.547v-2.172h.946v2.172h1.742v.765h-1.742v5.625c0 .542.097.91.293 1.106.196.195.461.293.8.293.189 0 .443-.029.767-.086z"/></g><g clip-path="url(#9fg0a)"><path fill="#fff" d="M292.528 40.563h.93v8.453h-.93zm.941-2.898c.117.12.176.27.176.453a.6.6 0 0 1-.176.441.638.638 0 0 1-.472.176.6.6 0 0 1-.641-.617c0-.183.059-.333.176-.453a.616.616 0 0 1 .465-.18z"/></g><g clip-path="url(#9fg0a)"><path fill="#fff" d="M302.176 40.563l-3.164 8.453h-.758l-3.172-8.453h.97l2.593 7.164 2.562-7.164z"/></g><g clip-path="url(#9fg0a)"><path fill="#fff" d="M306.81 41.203c.503 0 .936.126 1.295.38.36.252.633.586.817 1.003.184.417.282.87.293 1.36v.101h-5.055a3.947 3.947 0 0 1 .453-1.496c.24-.43.548-.762.927-.996zm3.342 3.641v-.57c0-.755-.13-1.425-.39-2.008a3.095 3.095 0 0 0-1.149-1.367c-.505-.328-1.106-.492-1.804-.492-.646 0-1.247.176-1.8.531-.556.354-.998.856-1.329 1.508-.33.651-.496 1.398-.496 2.242v.336c0 .797.163 1.51.488 2.14.325.63.777 1.122 1.351 1.477a3.651 3.651 0 0 0 1.95.531c.709 0 1.308-.137 1.8-.41a3.449 3.449 0 0 0 1.2-1.09l-.593-.445c-.303.401-.647.694-1.032.88-.386.183-.83.276-1.336.276a2.605 2.605 0 0 1-1.5-.445 2.987 2.987 0 0 1-1.024-1.215 3.89 3.89 0 0 1-.367-1.699v-.18z"/></g><g clip-path="url(#9fg0a)"><path fill="#fff" d="M313.141 44.578c-.425-.192-.749-.44-.973-.742-.223-.302-.336-.68-.336-1.133 0-.422.122-.808.368-1.156.245-.349.592-.626 1.043-.832.45-.206.972-.309 1.566-.309.641 0 1.196.11 1.668.324.472.216.832.516 1.082.9.25.382.375.815.375 1.3h-.945c0-.297-.086-.579-.258-.844a1.816 1.816 0 0 0-.754-.64c-.33-.162-.72-.243-1.168-.243-.464 0-.848.07-1.152.211-.305.141-.531.323-.676.547a1.278 1.278 0 0 0-.219.711c0 .27.059.5.176.687.117.188.34.36.668.516.328.156.8.305 1.414.445.698.161 1.262.351 1.691.567.43.215.749.48.957.79.208.308.313.687.313 1.135 0 .458-.129.868-.387 1.227-.258.36-.622.638-1.094.836-.471.198-1.016.297-1.636.297-.688 0-1.282-.116-1.782-.348-.5-.23-.879-.542-1.14-.93a2.198 2.198 0 0 1-.39-1.253h.929c.042.61.293 1.05.754 1.324.461.273 1.004.41 1.629.41.458 0 .851-.07 1.18-.21.327-.142.576-.326.745-.556.169-.229.254-.479.254-.75 0-.4-.16-.753-.484-1.054-.323-.302-.917-.544-1.781-.727-.667-.14-1.212-.308-1.637-.5"/></g></g></g></g></g></g></svg>